<svg width="48" height="48" viewBox="0 0 48 48" fill="none" xmlns="http://www.w3.org/2000/svg">
<circle cx="24" cy="24" r="24" fill="#FFDE40"/>
<path d="M21.5202 21C21.825 21.3329 22.201 21.5927 22.6202 21.76C23.0605 21.9279 23.5291 22.0094 24.0002 22C24.4737 22.0043 24.9432 21.9125 25.3802 21.73C25.7946 21.5677 26.1696 21.3188 26.4802 21C26.8076 20.6312 27.0621 20.2037 27.2302 19.74C27.4202 19.18 27.5116 18.5913 27.5002 18C27.5115 17.4153 27.4201 16.8332 27.2302 16.28C27.0667 15.8082 26.8119 15.3733 26.4802 15C26.1671 14.6748 25.7888 14.4192 25.3702 14.25C24.4862 13.9038 23.5042 13.9038 22.6202 14.25C22.202 14.4145 21.8261 14.6708 21.5202 15C21.1893 15.3663 20.9344 15.7946 20.7702 16.26C20.578 16.8195 20.4866 17.4086 20.5002 18C20.4889 18.5848 20.5803 19.1669 20.7702 19.72C20.9284 20.1943 21.1838 20.6303 21.5202 21ZM22.5202 17C22.5921 16.7689 22.7151 16.557 22.8802 16.38C22.9916 16.245 23.1364 16.1416 23.3002 16.08C23.5181 15.9709 23.7567 15.9095 24.0002 15.9C24.2292 15.8966 24.4567 15.9373 24.6702 16.02C24.8377 16.0855 24.9881 16.1881 25.1102 16.32C25.2651 16.4897 25.3811 16.691 25.4502 16.91C25.5688 17.2606 25.6197 17.6305 25.6002 18C25.6039 18.34 25.5498 18.6782 25.4402 19C25.3658 19.233 25.2432 19.4477 25.0802 19.63C24.9585 19.7648 24.8081 19.8708 24.6402 19.94C24.4393 20.0344 24.2219 20.0888 24.0002 20.1C23.7725 20.1104 23.545 20.0765 23.3302 20C23.1675 19.9413 23.0228 19.8414 22.9102 19.71C22.7521 19.5335 22.6328 19.3257 22.5602 19.1C22.4388 18.7465 22.3846 18.3735 22.4002 18C22.3905 17.64 22.4447 17.2812 22.5602 16.94L22.5202 17ZM31.4002 25.51C31.2204 24.8018 30.8126 24.1724 30.2398 23.7188C29.6669 23.2653 28.9608 23.0127 28.2302 23H26.6702C26.363 23.5825 25.8549 24.0338 25.2402 24.27C24.4373 24.5698 23.5532 24.5698 22.7502 24.27C22.3747 24.1218 22.0342 23.897 21.7502 23.61C21.5796 23.4251 21.4319 23.2203 21.3102 23H19.7702C19.0407 23.0004 18.3314 23.2403 17.7515 23.683C17.1715 24.1256 16.753 24.7464 16.5602 25.45L14.4702 33H33.5302L31.4002 25.51ZM20.8302 31.1C21.1554 30.5485 21.6189 30.0914 22.1748 29.7738C22.7308 29.4562 23.3599 29.2891 24.0002 29.2891C24.6405 29.2891 25.2697 29.4562 25.8256 29.7738C26.3816 30.0914 26.845 30.5485 27.1702 31.1H20.8302ZM29.2702 31.1C28.8802 30.0149 28.1648 29.0766 27.2215 28.4133C26.2783 27.75 25.1533 27.394 24.0002 27.394C22.8471 27.394 21.7221 27.75 20.7789 28.4133C19.8357 29.0766 19.1202 30.0149 18.7302 31.1H17.0002L18.3902 26C18.4825 25.7073 18.6665 25.4521 18.915 25.272C19.1635 25.0919 19.4633 24.9966 19.7702 25H20.3502C20.8198 25.4914 21.394 25.8708 22.0302 26.11C22.6631 26.3287 23.3312 26.427 24.0002 26.4C24.6671 26.3974 25.3267 26.2614 25.9402 26C26.5721 25.7533 27.1421 25.371 27.6102 24.88H28.2302C28.5371 24.8766 28.8369 24.9719 29.0855 25.152C29.334 25.3321 29.518 25.5873 29.6102 25.88L31.0002 31.1H29.2702Z" fill="black"/>
</svg>
