<svg width="43" height="47" viewBox="0 0 43 47" fill="none" xmlns="http://www.w3.org/2000/svg">
<path d="M39.7909 21.9355H36.5709L34.8209 17.2455C34.5794 16.5774 34.1404 15.9986 33.5621 15.586C32.9838 15.1734 32.2937 14.9465 31.5834 14.9355H29.2034L27.2959 9.68555H15.5009L13.5934 14.9355H11.2134C10.4941 14.9359 9.79233 15.1578 9.20364 15.5711C8.61496 15.9844 8.16792 16.5691 7.92336 17.2455L6.22586 21.9355H3.00586V23.3705L5.64836 23.983V41.1855H7.39836V37.6855H35.3984V41.1855H37.1484V23.983L39.7909 23.3705V21.9355ZM16.7259 11.4355H26.0709L27.3484 14.9355H15.4484L16.7259 11.4355ZM9.56836 17.8405C9.69064 17.5023 9.91416 17.21 10.2085 17.0033C10.5028 16.7967 10.8537 16.6857 11.2134 16.6855H31.5834C31.943 16.6857 32.2939 16.7967 32.5882 17.0033C32.8826 17.21 33.1061 17.5023 33.2284 17.8405L35.3984 23.6855H7.39836L9.56836 17.8405ZM35.3984 28.9355H29.9909L29.3434 30.6855H35.3984V35.9355H7.39836V30.6855H13.4534L12.8059 28.9355H7.39836V25.4355H35.3984V28.9355Z" fill="#FFDE40"/>
</svg>
