<svg width="41" height="41" viewBox="0 0 41 41" fill="none" xmlns="http://www.w3.org/2000/svg">
<path d="M34.2483 17.1022L32.8149 13.1689C32.519 12.368 31.9851 11.6769 31.285 11.1883C30.5849 10.6997 29.752 10.437 28.8983 10.4355H11.8983C11.0445 10.437 10.2117 10.6997 9.51153 11.1883C8.8114 11.6769 8.27753 12.368 7.98161 13.1689L6.54827 17.1022H2.06494V19.4522L5.39827 20.6689V35.4355H8.73161V32.1022H32.0649V35.4355H35.3983V20.6689L38.7316 19.4522V17.1022H34.2483ZM10.7983 14.2022C10.8826 13.9782 11.0328 13.7849 11.2292 13.6481C11.4256 13.5112 11.6589 13.4371 11.8983 13.4355H28.8983C29.1377 13.4371 29.3709 13.5112 29.5673 13.6481C29.7637 13.7849 29.914 13.9782 29.9983 14.2022L31.6649 18.7689H9.13161L10.7983 14.2022ZM32.4649 23.8522H27.7649L26.5983 27.0189H32.3983V29.1022H8.39827V27.1022H14.1983L13.0316 23.9355H8.39827V21.7689H32.3983L32.4649 23.8522ZM26.8483 5.43555H13.9483L12.7316 8.76888H28.0649L26.8483 5.43555Z" fill="black"/>
</svg>
