<svg width="48" height="48" viewBox="0 0 48 48" fill="none" xmlns="http://www.w3.org/2000/svg">
<circle cx="24" cy="24" r="24" fill="#FFDE40"/>
<path d="M23.9999 17C22.4177 17 20.871 17.4692 19.5554 18.3483C18.2398 19.2273 17.2144 20.4768 16.6089 21.9386C16.0034 23.4004 15.845 25.0089 16.1536 26.5608C16.4623 28.1126 17.2242 29.5381 18.3431 30.6569C19.4619 31.7757 20.8874 32.5376 22.4392 32.8463C23.991 33.155 25.5996 32.9966 27.0614 32.3911C28.5232 31.7856 29.7726 30.7602 30.6517 29.4446C31.5307 28.129 31.9999 26.5823 31.9999 25C31.9999 22.8783 31.1571 20.8435 29.6568 19.3432C28.1565 17.8429 26.1217 17 23.9999 17ZM23.9999 31C22.8132 31 21.6532 30.6481 20.6665 29.9889C19.6798 29.3296 18.9108 28.3925 18.4566 27.2961C18.0025 26.1998 17.8837 24.9934 18.1152 23.8295C18.3467 22.6656 18.9182 21.5965 19.7573 20.7574C20.5964 19.9183 21.6655 19.3468 22.8294 19.1153C23.9933 18.8838 25.1997 19.0026 26.296 19.4568C27.3924 19.9109 28.3295 20.6799 28.9887 21.6666C29.648 22.6533 29.9999 23.8134 29.9999 25C29.9999 26.5913 29.3678 28.1175 28.2426 29.2427C27.1173 30.3679 25.5912 31 23.9999 31ZM24.8999 21.3H23.0999V25.56L27.2599 27.63L28.0699 26L24.8999 24.44V21.3ZM19.3799 16.13L17.9099 14.67C17.0393 15.1854 16.2336 15.8031 15.5099 16.51C14.803 17.2337 14.1852 18.0395 13.6699 18.91L15.1299 20.38C16.0799 18.563 17.5629 17.08 19.3799 16.13ZM32.4899 16.51C31.7663 15.8031 30.9605 15.1854 30.0899 14.67L28.6199 16.13C30.437 17.08 31.92 18.563 32.8699 20.38L34.3299 18.91C33.8146 18.0395 33.1969 17.2337 32.4899 16.51Z" fill="black"/>
</svg>
