<svg width="49" height="49" viewBox="0 0 49 49" fill="none" xmlns="http://www.w3.org/2000/svg">
<circle cx="24.3984" cy="24.4355" r="24" fill="#FFDE40"/>
<path d="M25.2484 16.4355C25.1137 16.1374 24.8958 15.8844 24.6209 15.707C24.3459 15.5297 24.0256 15.4354 23.6984 15.4355H16.3984V34.4355H18.3984V27.4355H23.5484C23.6832 27.7337 23.9011 27.9867 24.176 28.1641C24.451 28.3414 24.7712 28.4357 25.0984 28.4355H32.3984V16.4355H25.2484ZM30.3984 21.4355H25.3984V18.4355H30.3984V21.4355ZM23.3984 17.4355V20.4355H18.3984V17.4355H23.3984ZM18.3984 22.4355H23.3984V25.4355H18.3984V22.4355ZM25.3984 26.4355V23.4355H30.3984V26.4355H25.3984Z" fill="black"/>
</svg>
