<svg width="48" height="48" viewBox="0 0 48 48" fill="none" xmlns="http://www.w3.org/2000/svg">
<circle cx="24" cy="24" r="24" fill="#FFDE40"/>
<path d="M24 23C24.89 23 25.76 22.7361 26.5001 22.2416C27.2401 21.7471 27.8169 21.0443 28.1575 20.2221C28.4981 19.3998 28.5872 18.495 28.4135 17.6221C28.2399 16.7492 27.8113 15.9474 27.182 15.318C26.5526 14.6887 25.7508 14.2601 24.8779 14.0865C24.005 13.9128 23.1002 14.0019 22.2779 14.3425C21.4557 14.6831 20.7529 15.2599 20.2584 15.9999C19.7639 16.74 19.5 17.61 19.5 18.5C19.4987 19.0913 19.6142 19.6771 19.8399 20.2236C20.0655 20.7702 20.397 21.2668 20.8151 21.6849C21.2332 22.103 21.7298 22.4345 22.2764 22.6601C22.8229 22.8858 23.4087 23.0013 24 23ZM24 16C24.4945 16 24.9778 16.1466 25.3889 16.4213C25.8 16.696 26.1205 17.0865 26.3097 17.5433C26.4989 18.0001 26.5484 18.5028 26.452 18.9877C26.3555 19.4727 26.1174 19.9181 25.7678 20.2678C25.4181 20.6174 24.9727 20.8555 24.4877 20.952C24.0028 21.0484 23.5001 20.9989 23.0433 20.8097C22.5865 20.6205 22.196 20.3001 21.9213 19.8889C21.6466 19.4778 21.5 18.9945 21.5 18.5C21.5 17.837 21.7634 17.2011 22.2322 16.7322C22.7011 16.2634 23.337 16 24 16ZM30.9 24.31C30.7468 24.3001 30.5932 24.3001 30.44 24.31L26 25H19L14 27V34L19 33.09H26L34 28.45V27.45C34.0053 27.0396 33.929 26.6321 33.7756 26.2514C33.6222 25.8707 33.3947 25.5242 33.1063 25.2321C32.8179 24.94 32.4744 24.708 32.0956 24.5497C31.7169 24.3915 31.3105 24.31 30.9 24.31ZM32.2 27.42L25.52 31.29H18.84H18.68L15.8 31.81V28.22L19.35 26.8H24.5C24.6857 26.8 24.8637 26.8738 24.995 27.005C25.1263 27.1363 25.2 27.3144 25.2 27.5C25.2 27.6857 25.1263 27.8637 24.995 27.995C24.8637 28.1263 24.6857 28.2 24.5 28.2H20.94L20 30H24.5C25.163 30 25.7989 29.7366 26.2678 29.2678C26.7366 28.7989 27 28.163 27 27.5C26.9942 27.2245 26.947 26.9515 26.86 26.69L30.7 26.12H30.9C31.2448 26.12 31.5754 26.257 31.8192 26.5008C32.063 26.7446 32.2 27.0752 32.2 27.42Z" fill="black"/>
</svg>
