<svg width="41" height="41" viewBox="0 0 41 41" fill="none" xmlns="http://www.w3.org/2000/svg">
<path d="M17.0653 18.2855H19.5653V15.5855H24.0653V13.2189H19.5486V11.5522H22.3819C22.9277 11.5956 23.4765 11.5265 23.9944 11.3492C24.5124 11.1719 24.9884 10.8902 25.3931 10.5214C25.7977 10.1527 26.1224 9.70487 26.3469 9.2056C26.5715 8.70633 26.6912 8.16627 26.6986 7.61887C26.7034 7.08168 26.5952 6.54947 26.3811 6.05677C26.167 5.56406 25.8517 5.12187 25.4557 4.75886C25.0597 4.39585 24.5918 4.12013 24.0824 3.94958C23.5729 3.77903 23.0334 3.71747 22.4986 3.76887H17.0653V8.95221H14.7153V11.6189H17.0653V13.2855H14.7153V15.5855H17.0653V18.2855ZM19.7319 6.41887H22.5153C23.6153 6.41887 24.0486 6.93554 24.0486 7.68554C24.0486 8.43554 23.4486 8.95221 22.3819 8.95221H19.7153L19.7319 6.41887ZM31.9153 20.9522C31.66 20.9356 31.4039 20.9356 31.1486 20.9522L23.7319 22.1022H12.0653L3.73193 25.4355V37.1022L12.0653 35.5855H23.7319L37.0653 27.8522V26.1855C37.0741 25.5015 36.947 24.8224 36.6913 24.1879C36.4356 23.5533 36.0564 22.9758 35.5758 22.489C35.0951 22.0021 34.5226 21.6156 33.8913 21.3518C33.2601 21.088 32.5827 20.9522 31.8986 20.9522H31.9153ZM34.0819 26.1355L22.9486 32.5855H11.7986H11.5319L6.73193 33.4522V27.4689L12.6486 25.1022H21.2319C21.5414 25.1022 21.8381 25.2251 22.0569 25.4439C22.2757 25.6627 22.3986 25.9595 22.3986 26.2689C22.3986 26.5783 22.2757 26.875 22.0569 27.0938C21.8381 27.3126 21.5414 27.4355 21.2319 27.4355H15.2986L13.7319 30.4355H21.2319C22.337 30.4355 23.3968 29.9966 24.1782 29.2152C24.9596 28.4338 25.3986 27.3739 25.3986 26.2689C25.3889 25.8097 25.3102 25.3546 25.1653 24.9189L31.5653 23.9689H31.8986C32.4732 23.9689 33.0243 24.1971 33.4307 24.6035C33.837 25.0098 34.0653 25.5609 34.0653 26.1355H34.0819Z" fill="black"/>
</svg>
