<svg width="43" height="43" viewBox="0 0 43 43" fill="none" xmlns="http://www.w3.org/2000/svg">
<path d="M17.8984 20.1405H19.6484V17.7255H25.2484V15.9755H19.6484V13.928H23.4984C24.0715 13.9736 24.6477 13.9011 25.1916 13.7149C25.7354 13.5287 26.2352 13.2329 26.6601 12.8457C27.085 12.4586 27.4259 11.9883 27.6617 11.4641C27.8975 10.9399 28.0232 10.3728 28.0309 9.79804C28.0463 9.22652 27.9396 8.6583 27.7182 8.1312C27.4967 7.60411 27.1655 7.13024 26.7466 6.74114C26.3277 6.35205 25.8308 6.05666 25.2888 5.87465C24.7468 5.69263 24.1723 5.62817 23.6034 5.68554H17.8984V12.178H15.4309V13.928H17.8984V15.9755H15.4309V17.7255H17.8984V20.1405ZM19.6484 7.43554H23.6209C23.9577 7.38674 24.3011 7.41239 24.6269 7.51068C24.9528 7.60898 25.253 7.77752 25.5067 8.00444C25.7603 8.23136 25.961 8.51113 26.0948 8.82405C26.2286 9.13697 26.2921 9.47541 26.2809 9.81554C26.2809 12.1255 23.7784 12.1955 23.4984 12.1955H19.6484V7.43554ZM34.3134 23.6055H33.6134L24.8984 24.9355H12.6484L3.89844 28.4355V38.9355L12.6484 37.343H24.8984L38.8984 29.223V28.208C38.8984 26.9858 38.4141 25.8133 37.5515 24.9474C36.6888 24.0815 35.5182 23.5927 34.2959 23.588L34.3134 23.6055ZM37.1484 28.2255L24.4259 35.593H12.4909H12.3334L5.64844 36.8355V29.6255L12.9809 26.6855H23.1484C23.6126 26.6855 24.0577 26.8699 24.3859 27.1981C24.7141 27.5263 24.8984 27.9714 24.8984 28.4355C24.8984 28.8997 24.7141 29.3448 24.3859 29.673C24.0577 30.0012 23.6126 30.1855 23.1484 30.1855H16.1484L15.2384 31.9355H23.1484C24.0767 31.9355 24.9669 31.5668 25.6233 30.9104C26.2797 30.254 26.6484 29.3638 26.6484 28.4355C26.6449 27.7572 26.4442 27.0945 26.0709 26.528L33.8584 25.373H34.2959C35.048 25.3776 35.7683 25.6772 36.3018 26.2074C36.8353 26.7376 37.1393 27.456 37.1484 28.208V28.2255Z" fill="#FFDE40"/>
</svg>
