<svg width="48" height="48" viewBox="0 0 48 48" fill="none" xmlns="http://www.w3.org/2000/svg">
<circle cx="24" cy="24" r="24" fill="#FFDE40"/>
<path d="M13 16V32H35V16H13ZM33.1 30.1H14.9V17.9H33.1V30.1ZM22 28.17H23.5V27.09H26.2V25.67H23.49V24.67H25.19C25.5174 24.696 25.8467 24.6546 26.1575 24.5482C26.4683 24.4418 26.7539 24.2728 26.9967 24.0515C27.2395 23.8303 27.4343 23.5616 27.569 23.262C27.7037 22.9625 27.7756 22.6384 27.78 22.31C27.7829 21.9877 27.718 21.6684 27.5895 21.3727C27.461 21.0771 27.2719 20.8118 27.0343 20.594C26.7967 20.3762 26.5159 20.2108 26.2103 20.1084C25.9046 20.0061 25.5809 19.9692 25.26 20H22V23.12H20.59V24.72H22V25.72H20.59V27.14H22V28.17ZM23.6 21.59H25.27C25.93 21.59 26.19 21.9 26.19 22.35C26.19 22.8 25.83 23.11 25.19 23.11H23.59L23.6 21.59Z" fill="black"/>
</svg>
