<svg width="41" height="41" viewBox="0 0 41 41" fill="none" xmlns="http://www.w3.org/2000/svg">
<path d="M27.6486 13.7689L20.1153 27.1022H23.3653L30.8986 13.7689H27.6486ZM22.2986 17.1022C22.6282 17.1022 22.9505 17.0045 23.2246 16.8213C23.4986 16.6382 23.7123 16.3779 23.8384 16.0733C23.9646 15.7688 23.9976 15.4337 23.9333 15.1104C23.8689 14.7871 23.7102 14.4901 23.4771 14.257C23.244 14.0239 22.9471 13.8652 22.6238 13.8009C22.3005 13.7366 21.9653 13.7696 21.6608 13.8957C21.3563 14.0219 21.096 14.2355 20.9128 14.5096C20.7297 14.7837 20.6319 15.1059 20.6319 15.4355C20.6319 15.8776 20.8075 16.3015 21.1201 16.6141C21.4327 16.9266 21.8566 17.1022 22.2986 17.1022ZM28.7319 23.6522C28.4023 23.6522 28.0801 23.75 27.806 23.9331C27.5319 24.1162 27.3183 24.3765 27.1921 24.6811C27.066 24.9856 27.033 25.3207 27.0973 25.644C27.1616 25.9673 27.3203 26.2643 27.5534 26.4974C27.7865 26.7305 28.0835 26.8892 28.4068 26.9535C28.7301 27.0178 29.0652 26.9848 29.3697 26.8587C29.6743 26.7325 29.9346 26.5189 30.1177 26.2448C30.3009 25.9707 30.3986 25.6485 30.3986 25.3189C30.3986 24.8768 30.223 24.4529 29.9105 24.1404C29.5979 23.8278 29.174 23.6522 28.7319 23.6522ZM20.3986 3.76888C17.1023 3.76888 13.8799 4.74636 11.1391 6.57772C8.39828 8.40907 6.26208 11.012 5.00062 14.0575C3.73915 17.1029 3.4091 20.454 4.05219 23.687C4.69527 26.9201 6.28262 29.8898 8.61349 32.2207C10.9444 34.5515 13.9141 36.1389 17.1471 36.782C20.3801 37.4251 23.7312 37.095 26.7767 35.8335C29.8221 34.5721 32.4251 32.4359 34.2564 29.695C36.0878 26.9542 37.0653 23.7319 37.0653 20.4355C37.0653 18.2468 36.6342 16.0796 35.7966 14.0575C34.959 12.0354 33.7314 10.1981 32.1837 8.65043C30.6361 7.10279 28.7988 5.87513 26.7767 5.03755C24.7546 4.19997 22.5873 3.76888 20.3986 3.76888ZM20.3986 33.7689C17.7615 33.7689 15.1837 32.9869 12.991 31.5218C10.7983 30.0567 9.08938 27.9743 8.08021 25.538C7.07105 23.1016 6.807 20.4208 7.32147 17.8343C7.83594 15.2479 9.10582 12.8722 10.9705 11.0075C12.8352 9.14275 15.211 7.87287 17.7974 7.35841C20.3838 6.84394 23.0647 7.10798 25.5011 8.11715C27.9374 9.12632 30.0198 10.8353 31.4849 13.0279C32.95 15.2206 33.7319 17.7985 33.7319 20.4355C33.7319 23.9718 32.3272 27.3631 29.8267 29.8636C27.3262 32.3641 23.9348 33.7689 20.3986 33.7689ZM14.7986 13.4855C14.2224 13.4811 13.651 13.5908 13.1173 13.8083C12.5837 14.0258 12.0984 14.3467 11.6893 14.7527C11.2803 15.1586 10.9557 15.6414 10.7342 16.1734C10.5126 16.7054 10.3986 17.276 10.3986 17.8522V23.0855C10.3986 24.2437 10.8587 25.3543 11.6776 26.1732C12.4965 26.9922 13.6072 27.4522 14.7653 27.4522C15.9234 27.4522 17.0341 26.9922 17.853 26.1732C18.6719 25.3543 19.1319 24.2437 19.1319 23.0855V17.8522C19.132 16.6998 18.6765 15.5942 17.8648 14.7762C17.0531 13.9583 15.9509 13.4943 14.7986 13.4855ZM16.3319 23.0855C16.3319 23.4922 16.1704 23.8822 15.8828 24.1698C15.5953 24.4573 15.2053 24.6189 14.7986 24.6189C14.3919 24.6189 14.0019 24.4573 13.7144 24.1698C13.4268 23.8822 13.2653 23.4922 13.2653 23.0855V17.8522C13.2653 17.4455 13.4268 17.0555 13.7144 16.768C14.0019 16.4804 14.3919 16.3189 14.7986 16.3189C15.2053 16.3189 15.5953 16.4804 15.8828 16.768C16.1704 17.0555 16.3319 17.4455 16.3319 17.8522V23.0855Z" fill="black"/>
</svg>
