<svg width="43" height="47" viewBox="0 0 43 47" fill="none" xmlns="http://www.w3.org/2000/svg">
<path d="M33.6482 10.6306C32.1919 10.6362 30.791 11.1903 29.7248 12.1824C28.6586 13.1745 28.0053 14.5319 27.8949 15.9841C27.7846 17.4363 28.2253 18.8768 29.1294 20.0187C30.0334 21.1605 31.3344 21.9199 32.7732 22.1456V32.4356C32.7732 33.8279 32.2201 35.1633 31.2356 36.1479C30.251 37.1324 28.9156 37.6856 27.5232 37.6856C26.1309 37.6856 24.7955 37.1324 23.8109 36.1479C22.8264 35.1633 22.2732 33.8279 22.2732 32.4356V18.4356C22.2732 16.579 21.5357 14.7986 20.223 13.4858C18.9102 12.1731 17.1298 11.4356 15.2732 11.4356C13.4167 11.4356 11.6362 12.1731 10.3235 13.4858C9.01074 14.7986 8.27324 16.579 8.27324 18.4356V23.6856H10.0232V18.4356C10.0232 17.0432 10.5764 15.7078 11.5609 14.7232C12.5455 13.7387 13.8809 13.1856 15.2732 13.1856C16.6656 13.1856 18.001 13.7387 18.9856 14.7232C19.9701 15.7078 20.5232 17.0432 20.5232 18.4356V32.4356C20.5232 34.2921 21.2607 36.0725 22.5735 37.3853C23.8862 38.6981 25.6667 39.4356 27.5232 39.4356C29.3798 39.4356 31.1602 38.6981 32.473 37.3853C33.7857 36.0725 34.5232 34.2921 34.5232 32.4356V22.1456C35.9621 21.9199 37.2631 21.1605 38.1671 20.0187C39.0712 18.8768 39.5119 17.4363 39.4016 15.9841C39.2912 14.5319 38.6379 13.1745 37.5717 12.1824C36.5054 11.1903 35.1046 10.6362 33.6482 10.6306V10.6306ZM33.6482 20.4831C32.8445 20.4865 32.0578 20.2514 31.3879 19.8073C30.7179 19.3633 30.1948 18.7305 29.8848 17.9889C29.5749 17.2474 29.492 16.4305 29.6466 15.6418C29.8013 14.8531 30.1866 14.128 30.7537 13.5584C31.3208 12.9889 32.0442 12.6005 32.8322 12.4424C33.6203 12.2843 34.4375 12.3637 35.1804 12.6705C35.9233 12.9772 36.5584 13.4976 37.0053 14.1656C37.4522 14.8337 37.6907 15.6193 37.6907 16.4231C37.693 16.9554 37.5902 17.4829 37.3881 17.9754C37.1859 18.4679 36.8885 18.9156 36.5129 19.2929C36.1373 19.6701 35.6909 19.9694 35.1993 20.1737C34.7077 20.3779 34.1806 20.4831 33.6482 20.4831V20.4831ZM8.32574 26.8006L2.76074 37.7906L4.02074 39.6631L9.14824 38.2281L14.2757 39.6631L15.5357 37.7906L9.95324 26.8006H8.32574ZM9.62074 36.5481L9.14824 36.4081L8.67574 36.5481L4.80824 37.6856L9.14824 29.0756L13.4882 37.6856L9.62074 36.5481Z" fill="#FFDE40"/>
</svg>
