<svg width="43" height="44" viewBox="0 0 43 44" fill="none" xmlns="http://www.w3.org/2000/svg">
<mask id="mask0" mask-type="alpha" maskUnits="userSpaceOnUse" x="-5" y="3" width="59" height="65">
<path d="M5.93898 31.0031L-4.60156 49.449L52.3174 67.895L53.8984 13.0841L33.3444 3.59766C36.6822 10.6247 40.3011 26.4706 28.0741 33.6382C15.8471 40.8058 8.22276 34.8679 5.93898 31.0031Z" fill="#C4C4C4"/>
</mask>
<g mask="url(#mask0)">
<circle cx="23.3851" cy="24.7327" r="17.9189" stroke="#FFDE40" stroke-width="2.10811"/>
</g>
<circle cx="19.1146" cy="19.4085" r="17.9189" stroke="#FFDE40" stroke-width="2.10811"/>
<path d="M14.5801 27.2416H16.597V24.4265H23.0509V22.3866H16.597V19.9999H21.0341C21.6945 20.053 22.3586 19.9684 22.9854 19.7514C23.6121 19.5344 24.1882 19.1896 24.6779 18.7383C25.1676 18.287 25.5604 17.7388 25.8322 17.1277C26.1039 16.5166 26.2488 15.8557 26.2577 15.1857C26.2754 14.5195 26.1525 13.8571 25.8973 13.2427C25.6421 12.6283 25.2604 12.0759 24.7776 11.6223C24.2948 11.1688 23.722 10.8245 23.0974 10.6123C22.4728 10.4001 21.8107 10.325 21.1551 10.3919H14.5801V17.9803H11.7363V20.0203H14.5801V22.407H11.7363V24.4469H14.5801V27.2416ZM16.597 12.4318H21.1752C21.5634 12.3749 21.9592 12.4048 22.3347 12.5194C22.7101 12.6339 23.0562 12.8304 23.3485 13.0949C23.6408 13.3594 23.8722 13.6855 24.0264 14.0503C24.1805 14.4151 24.2538 14.8096 24.2409 15.2061C24.2409 17.8988 21.3568 17.9803 21.0341 17.9803H16.597V12.4318Z" fill="white"/>
</svg>
