<svg width="41" height="41" viewBox="0 0 41 41" fill="none" xmlns="http://www.w3.org/2000/svg">
<path d="M32.365 35.5355L28.5817 23.8689L38.5817 16.6189L37.715 14.2522H25.3983L21.615 2.58554H19.1483L15.3983 14.2855H3.06501L2.29834 16.6855L12.2983 23.9022L8.49834 35.5689L10.4817 37.1022L20.4817 29.9022L30.3983 37.1022L32.365 35.5355ZM22.165 27.4022L20.3983 26.1355L18.6317 27.4022L12.8817 31.6022L15.0817 24.8189L15.7483 22.7522L13.9817 21.4689L8.23167 17.2855H17.5317L18.1983 15.2022L20.3983 8.43554L22.5983 15.2022L23.2817 17.2855H32.5817L26.815 21.4689L25.0483 22.7522L25.7317 24.8189L27.9317 31.6022L22.165 27.4022Z" fill="black"/>
</svg>
