<svg width="48" height="48" viewBox="0 0 48 48" fill="none" xmlns="http://www.w3.org/2000/svg">
<circle cx="24" cy="24" r="24" fill="#FFDE40"/>
<path d="M31.0001 15.54C30.2129 15.5439 29.4528 15.8283 28.8563 16.3422C28.2598 16.856 27.866 17.5656 27.7456 18.3436C27.6252 19.1216 27.786 19.9171 28.1992 20.5872C28.6124 21.2573 29.2509 21.7582 30.0001 22V28C30.0001 28.663 29.7367 29.2989 29.2679 29.7678C28.799 30.2366 28.1632 30.5 27.5001 30.5C26.8371 30.5 26.2012 30.2366 25.7324 29.7678C25.2635 29.2989 25.0001 28.663 25.0001 28V20C25.0001 18.8065 24.526 17.6619 23.6821 16.818C22.8382 15.9741 21.6936 15.5 20.5001 15.5C19.3066 15.5 18.1621 15.9741 17.3181 16.818C16.4742 17.6619 16.0001 18.8065 16.0001 20V23H18.0001V20C18.0001 19.337 18.2635 18.7011 18.7324 18.2322C19.2012 17.7634 19.8371 17.5 20.5001 17.5C21.1632 17.5 21.799 17.7634 22.2679 18.2322C22.7367 18.7011 23.0001 19.337 23.0001 20V28C23.0001 29.1935 23.4742 30.3381 24.3181 31.182C25.1621 32.0259 26.3066 32.5 27.5001 32.5C28.6936 32.5 29.8382 32.0259 30.6821 31.182C31.526 30.3381 32.0001 29.1935 32.0001 28V22C32.7493 21.7582 33.3879 21.2573 33.8011 20.5872C34.2142 19.9171 34.3751 19.1216 34.2546 18.3436C34.1342 17.5656 33.7404 16.856 33.1439 16.3422C32.5475 15.8283 31.7874 15.5439 31.0001 15.54ZM31.0001 20.17C30.7386 20.172 30.4824 20.0963 30.2641 19.9524C30.0457 19.8086 29.8749 19.6031 29.7735 19.3621C29.672 19.1211 29.6445 18.8554 29.6943 18.5987C29.7441 18.342 29.869 18.1058 30.0532 17.9202C30.2374 17.7346 30.4726 17.6079 30.7289 17.5561C30.9852 17.5044 31.2511 17.5299 31.4929 17.6296C31.7347 17.7292 31.9415 17.8983 32.0869 18.1156C32.2324 18.3329 32.3101 18.5885 32.3101 18.85C32.3101 19.1984 32.1724 19.5326 31.927 19.7799C31.6817 20.0271 31.3485 20.1674 31.0001 20.17ZM16.0001 24.78L13.1201 30.78L13.8801 32.1L17.0001 31.31L20.1201 32.13L20.8801 30.81L17.9801 24.81L16.0001 24.78ZM17.4301 29.67L17.0001 29.56L16.5701 29.67L15.4001 30L17.0001 26.64L18.5901 30L17.4301 29.67Z" fill="black"/>
</svg>
