<svg width="36" height="36" viewBox="0 0 36 36" fill="none" xmlns="http://www.w3.org/2000/svg">
<path d="M17.0977 0.00562751C14.2087 0.0405025 7.99762 0.515253 4.52362 3.70238C1.9395 6.26288 1.03725 10.0485 0.931497 14.7296C0.843747 19.3939 0.737996 28.1531 9.18112 30.5381V34.1708C9.18112 34.1708 9.12825 35.6243 10.089 35.9224C11.2725 36.297 11.9464 35.1788 13.0714 33.9773L15.1695 31.6046C20.9464 32.085 25.371 30.978 25.8806 30.8138C27.0529 30.4391 33.6555 29.5954 34.7344 20.835C35.8414 11.7878 34.1955 6.08738 31.2244 3.50888H31.2064C30.3097 2.68313 26.7064 0.0573775 18.6559 0.0281275C18.6559 0.0281275 18.0585 -0.0123725 17.0977 0.00450251V0.00562751ZM17.1967 2.54925C18.0169 2.54363 18.5152 2.5785 18.5152 2.5785C25.3294 2.5965 28.5817 4.64738 29.349 5.33813C31.851 7.48238 33.1402 12.6214 32.1964 20.1746C31.2997 27.4984 25.9447 27.9619 24.9536 28.278C24.5317 28.413 20.6347 29.3738 15.7252 29.0576C15.7252 29.0576 12.069 33.4699 10.926 34.6061C10.7449 34.8053 10.5334 34.8638 10.3984 34.8345C10.2049 34.7873 10.1464 34.5476 10.1576 34.2191L10.1925 28.1903C3.03187 26.2103 3.45375 18.7391 3.53025 14.8365C3.618 10.9339 4.35037 7.74113 6.53062 5.57888C9.46575 2.925 14.7397 2.56725 17.1945 2.54925H17.1967ZM17.7367 6.45075C17.6778 6.45016 17.6193 6.46124 17.5647 6.48334C17.5101 6.50545 17.4604 6.53816 17.4184 6.57957C17.3765 6.62098 17.3432 6.67028 17.3204 6.72464C17.2976 6.77899 17.2858 6.83731 17.2856 6.89625C17.2856 7.14825 17.4904 7.34738 17.7367 7.34738C18.8522 7.32616 19.9608 7.52599 20.9986 7.93533C22.0365 8.34467 22.983 8.95543 23.7836 9.73238C25.4182 11.3198 26.2147 13.4528 26.2451 16.2416C26.2451 16.488 26.4442 16.6928 26.6962 16.6928V16.6748C26.815 16.6751 26.9291 16.6284 27.0136 16.5449C27.0981 16.4615 27.1462 16.348 27.1474 16.2293C27.202 14.9165 26.9891 13.6064 26.5217 12.3786C26.0542 11.1507 25.342 10.0307 24.4282 9.08663C22.6474 7.34625 20.3906 6.44963 17.7367 6.44963V6.45075ZM11.8069 7.48238C11.4884 7.43585 11.1637 7.49977 10.8866 7.6635H10.863C10.2198 8.04053 9.64036 8.51706 9.14625 9.07538C8.73562 9.55013 8.51287 10.0305 8.45437 10.4929C8.4195 10.7685 8.44312 11.0441 8.52525 11.3074L8.5545 11.3254C9.01687 12.6844 9.621 13.9916 10.359 15.2224C11.3096 16.9515 12.4796 18.5505 13.8397 19.98L13.8802 20.0385L13.9444 20.0858L13.9849 20.133L14.0321 20.1735C15.4668 21.5377 17.0697 22.7131 18.8021 23.6711C20.7821 24.7489 21.9836 25.2585 22.7047 25.47V25.4813C22.9162 25.5454 23.1086 25.5746 23.3021 25.5746C23.9167 25.5296 24.4985 25.2801 24.9547 24.8659C25.5105 24.3716 25.9817 23.7898 26.3497 23.1435V23.1323C26.6951 22.482 26.5781 21.8666 26.0797 21.4504C25.0817 20.5779 24.0024 19.803 22.8566 19.1363C22.0894 18.72 21.3097 18.972 20.9936 19.3939L20.3197 20.2433C19.9744 20.6651 19.3466 20.6066 19.3466 20.6066L19.3286 20.6179C14.6475 19.422 13.3987 14.6824 13.3987 14.6824C13.3987 14.6824 13.3402 14.0378 13.7734 13.7093L14.6171 13.0298C15.021 12.7013 15.3022 11.9228 14.8691 11.1544C14.2069 10.007 13.4337 8.9275 12.5606 7.93125C12.3697 7.69639 12.102 7.53659 11.8046 7.48013L11.8069 7.48238ZM18.5152 8.81888C17.9179 8.81888 17.9179 9.72113 18.5209 9.72113C19.2637 9.73318 19.9968 9.89149 20.6784 10.187C21.3601 10.4826 21.9767 10.9095 22.4932 11.4435C22.9644 11.9633 23.3265 12.5723 23.558 13.2345C23.7895 13.8968 23.8857 14.5988 23.841 15.2989C23.8431 15.4174 23.8914 15.5303 23.9757 15.6136C24.0601 15.6969 24.1736 15.7438 24.2921 15.7444L24.3101 15.768C24.4295 15.7671 24.5437 15.7193 24.6281 15.6349C24.7125 15.5505 24.7604 15.4363 24.7612 15.3169C24.8017 13.5293 24.246 12.0296 23.1559 10.8281C22.0601 9.62663 20.5312 8.95275 18.5794 8.81888H18.5152V8.81888ZM19.2544 11.2444C18.639 11.2264 18.6154 12.1466 19.2251 12.1646C20.7079 12.2411 21.4279 12.9904 21.5224 14.5316C21.5244 14.6486 21.5722 14.7602 21.6555 14.8424C21.7387 14.9246 21.8509 14.9709 21.9679 14.9715H21.9859C22.046 14.9689 22.1051 14.9544 22.1595 14.9287C22.214 14.9031 22.2628 14.8669 22.3032 14.8221C22.3435 14.7774 22.3745 14.7251 22.3944 14.6683C22.4143 14.6115 22.4226 14.5512 22.419 14.4911C22.3132 12.4819 21.2175 11.3501 19.2724 11.2455H19.2544V11.2444Z" fill="white"/>
</svg>
