<svg width="38" height="38" viewBox="0 0 38 38" fill="none" xmlns="http://www.w3.org/2000/svg">
<path fill-rule="evenodd" clip-rule="evenodd" d="M27.5738 22.7715C27.1019 22.5356 24.7887 21.3988 24.358 21.2404C23.9273 21.0837 23.6138 21.0061 23.2988 21.4779C22.9853 21.9466 22.0843 23.0074 21.8104 23.3209C21.5349 23.636 21.261 23.674 20.7907 23.4397C20.3205 23.2022 18.8037 22.7066 17.0066 21.1043C15.6085 19.8566 14.6633 18.316 14.3893 17.8442C14.1154 17.3739 14.3593 17.119 14.5952 16.8847C14.8073 16.6741 15.0654 16.3353 15.3013 16.0614C15.5372 15.7859 15.6148 15.5895 15.7716 15.2744C15.9299 14.9609 15.8508 14.687 15.732 14.4511C15.6148 14.2152 14.6743 11.8988 14.2817 10.9567C13.9001 10.0399 13.5122 10.165 13.224 10.1492C12.9485 10.1365 12.635 10.1334 12.3215 10.1334C12.008 10.1334 11.4982 10.2505 11.0675 10.7224C10.6352 11.1926 9.42083 12.331 9.42083 14.6474C9.42083 16.9623 11.1055 19.1995 11.3414 19.5146C11.5773 19.8281 14.6585 24.5813 19.3784 26.619C20.5026 27.1035 21.3782 27.3933 22.0606 27.6086C23.1879 27.968 24.2139 27.9174 25.0246 27.7954C25.9271 27.6609 27.8081 26.657 28.2008 25.5582C28.5918 24.4594 28.5918 23.5173 28.4747 23.3209C28.3575 23.1246 28.044 23.0074 27.5722 22.7715H27.5738ZM18.9889 34.4929H18.9826C16.1792 34.4935 13.4273 33.7398 11.0152 32.3111L10.4453 31.9723L4.52042 33.5271L6.10217 27.7511L5.73008 27.1589C4.1628 24.6642 3.33338 21.7768 3.33767 18.8306C3.34083 10.2014 10.3613 3.18094 18.9953 3.18094C23.1753 3.18094 27.1051 4.81178 30.0596 7.76944C31.5168 9.2207 32.6719 10.9465 33.4579 12.847C34.2438 14.7476 34.6451 16.7851 34.6386 18.8417C34.6354 27.4709 27.6149 34.4929 18.9889 34.4929V34.4929ZM32.3079 5.52269C30.5634 3.76666 28.4877 2.37429 26.2011 1.42629C23.9146 0.478294 21.4626 -0.00649221 18.9873 2.67341e-05C8.61017 2.67341e-05 0.1615 8.44711 0.158333 18.829C0.15675 22.1477 1.02283 25.3872 2.67108 28.2419L0 38L9.98133 35.3812C12.7425 36.8856 15.8366 37.6738 18.981 37.6739H18.9889C29.3661 37.6739 37.8148 29.2268 37.8179 18.8433C37.8256 16.369 37.3425 13.9177 36.3968 11.6312C35.451 9.34481 34.0612 7.26859 32.3079 5.52269" fill="white"/>
</svg>
